<svg xmlns="http://www.w3.org/2000/svg" viewBox="0 0 403.7 223.32">
  <defs>
    <style>
      .cls-3{fill:#b5ddff}.cls-4{fill:#a0cf65}.cls-5{fill:#436019}.cls-6{fill:#7fab49}.cls-7{fill:#60872e}.cls-8{fill:#51a9f2}.cls-9{fill:#f8e7c9}.cls-10{fill:#eed7d1}.cls-12{fill:#ad4848}.cls-14{fill:#ebbd88}.cls-15{fill:#fff}.cls-16{fill:#7492cc}.cls-19{opacity:.35}.cls-20{fill:#f0f0f0}.cls-22{fill:#1c85e8}
    </style>
  </defs>
  <g style="isolation:isolate">
    <g id="Layer_2" data-name="Layer 2">
      <g id="Layer_1-2" data-name="Layer 1">
        <path d="M349.4 223.32c7.36-22.42 53-174.68-54.71-207.83-116.36-35.81-133.21 98.9-166.11 97.2s-72.23-23.88-105.13 6c-29.82 27-4.26 92.64.78 104.67Z" fill="#d2e8f9"/>
        <path class="cls-3" d="M157.68 192.36c-26.9-1.64-51.82-18.11-67-40.48-22.84-33.64-31.93-88.25-4.62-122C112.49-2.8 160.89-5.87 198.31 7.26c26.28 9.22 49.35 28.88 59.92 54.65 24.7 60.2-36 132.36-98.24 130.55-.77-.02-1.54-.05-2.31-.1Z"/>
        <path class="cls-4" d="M317.16 92.43c-2.54-.68-8.47-.92-12.39-1-.19-.26-.36-.5-.53-.72-.87-1.12-2-2.57-3.13-4.24l12.16-1.55-14.84-2.48c-5.37-8.52-10.58-19.82-4.93-25 4.33-4 11.54-1.21 18.56 5l.43 16 4.26-11.31a69.54 69.54 0 0 1 8.33 11.7l-2.2 11.53 4.17-7.78c.07.14.15.29.21.43.5 1 1 2.09 1.39 3.14l-4.95 13.87 6.82-8.76a67.58 67.58 0 0 1 1.77 6.6l-5.39 10.95 6.25-6.16c1.44 10.14.1 18-2.65 19-8.38 2.92-18.44-18.51-24.31-28.07 4.59-.65 10.97-1.15 10.97-1.15Z"/>
        <path class="cls-5" d="M333.33 182.9a.41.41 0 0 1-.41-.43c0-.32.91-32.81-4.43-60.68s-29.74-58.54-30-58.85a.42.42 0 0 1 .06-.59.44.44 0 0 1 .6.07c.24.31 24.77 31.2 30.14 59.22s4.46 60.53 4.45 60.86a.43.43 0 0 1-.41.4Z"/>
        <path class="cls-6" d="m346.17 114.34-5.51-4.53c-.18-1.43-.33-2.93-.45-4.48l8 4.15L340 101a137.3 137.3 0 0 1 .25-15.65l12 7.85L341 78a72.59 72.59 0 0 1 4.17-17.21l7.79 7A139.14 139.14 0 0 0 350 53a8.44 8.44 0 0 1 6.5-2.67c8.19.48 11.23 12.24 10.84 26.32-3.09 4.91-8.13 12.73-9.68 14l9-4.79c-2.34 19.15-9.93 39-19 39.61-2.63.19-4.68-3.84-6-10.11Z"/>
        <path class="cls-5" d="M340 186.74a.42.42 0 0 1-.42-.38c-1.87-18.64.32-28.25 3.95-44.17 1.1-4.83 2.35-10.3 3.67-16.81 5.66-27.9 9-66.74 9-67.13a.42.42 0 1 1 .83.07c0 .39-3.34 39.28-9 67.23-1.32 6.52-2.57 12-3.67 16.83-3.73 16.37-5.79 25.39-3.94 43.9a.41.41 0 0 1-.37.46Z"/>
        <path class="cls-4" d="M370.43 121.86c-.12 3.43-.27 9.93-.27 9.93l8.23-11.46c13.39-.58 25.95 5.46 25.29 14.2l-15.9-5.28 11.35 10.86c-3.44 1.08-9.8 1.87-21.69 1.78h-1.08l-9-6.72 5.16 6.91a38.81 38.81 0 0 0-6 1l-6.69-4.85 4.17 5.58c-8.88 3-10.76 7.87-13.41 3.48-3.17-5.29 6.91-20.6 19.84-25.43Z"/>
        <path class="cls-5" d="M341.33 186.51a.42.42 0 0 1-.38-.45c0-.24 2.09-24.57 9.94-39.29s26.17-16.62 36-17.58h.39a.42.42 0 0 1 .08.84h-.38c-9.66.94-27.63 2.71-35.32 17.13-7.77 14.57-9.83 38.73-9.85 39a.42.42 0 0 1-.48.35Z"/>
        <path class="cls-6" d="M303.42 121.86c.11 3.43.26 9.93.26 9.93l-8.23-11.46c-13.39-.58-25.95 5.46-25.29 14.2l15.9-5.28-11.35 10.86c3.44 1.08 9.8 1.87 21.69 1.78h1.08l9-6.72-5.16 6.91a38.61 38.61 0 0 1 6 1l6.7-4.85-4.18 5.58c8.88 3 10.76 7.87 13.41 3.48 3.17-5.29-6.91-20.6-19.83-25.43Z"/>
        <path class="cls-5" d="M332.51 186.51a.42.42 0 0 1-.42-.38c0-.24-2.08-24.4-9.85-39-7.69-14.39-25.66-16.13-35.31-17.13h-.39a.42.42 0 0 1-.38-.46.41.41 0 0 1 .46-.38h.39c9.81 1 28.07 2.75 36 17.58s9.92 39 9.94 39.29a.42.42 0 0 1-.38.45Z"/>
        <path class="cls-7" d="m354.62 171-1.62-5.24a27.2 27.2 0 0 1 2.1-2.66l2.84 5.33-1.32-6.89c3.47-3.26 7.86-5.46 12.23-4.24l-5.85 9.24 10.57-6.46a9.51 9.51 0 0 1 .71.71c12.23 13.15-20.38 16.8-23.64 14.6-1.56-1.06-.69-4.68 1.62-8.43Z"/>
        <path class="cls-5" d="M345 188.5a.42.42 0 0 1-.41-.36c-1-7.1 2.66-11.37 4.41-13.43 2-2.31 12.77-7.08 13.23-7.29a.41.41 0 0 1 .55.22.41.41 0 0 1-.21.55c-.11.05-11.08 4.9-12.93 7.07-1.67 2-5.15 6-4.22 12.76a.43.43 0 0 1-.36.48Z"/>
        <path class="cls-8" d="M360.59 178.2H320v9.8a59.69 59.69 0 0 0 9 31.54h22.56a59.61 59.61 0 0 0 9-31.54Z"/>
        <path class="cls-8" d="M353.7 223.32h-26.84a3.53 3.53 0 0 1-3.52-3.53v-1.55h33.89v1.55a3.53 3.53 0 0 1-3.53 3.53Z"/>
        <path class="cls-9" d="M357.19 207.8c-5.23 1.09-11.06 1.77-16.19-.18a36.71 36.71 0 0 1-4.58-2.27c-1-.58-2.08-1.15-3.15-1.67a30.35 30.35 0 0 0-11.89-2.85c.28 1.23.58 2.47.93 3.68a26.49 26.49 0 0 1 9.38 2.46c1 .48 2 1 3 1.57a39.64 39.64 0 0 0 5.06 2.49 24.41 24.41 0 0 0 8.7 1.47 43.09 43.09 0 0 0 7.22-.7c.53-1.32 1.05-2.65 1.52-4ZM320 188c0 .56 0 1.11.06 1.66 1.82-.24 3.69-.4 5.55-.51 2.73-.15 5.82-.33 8.39.63a20.9 20.9 0 0 1 4 2.27 35.3 35.3 0 0 0 3.21 2c5 2.57 11.25 2.78 19 .64.15-1.29.25-2.59.31-3.9-7.39 2.26-13.19 2.29-17.61 0A28.86 28.86 0 0 1 340 189a23.78 23.78 0 0 0-4.76-2.64c-3.3-1.24-6.79-1-9.88-.85-1.8.1-3.62.24-5.4.46Z"/>
        <path class="cls-4" d="M41.57 88.52a10.48 10.48 0 0 1-4.65-4.75c-3.38-6.47-1.66-14.53 1.8-21S47.2 50.9 50.86 44.58a16 16 0 0 1 2.94-4.18 4.52 4.52 0 0 1 4.73-1c2.34 1.09 2.53 4.29 2.34 6.86Q60 58.35 58.41 70.41c-.63 4.79-1.43 9.77-4.23 13.71s-8.18 6.44-12.61 4.4Z"/>
        <path class="cls-6" d="M7.07 79.64c-.41-3.2-.21-7 2.37-8.91 3.27-2.46 8.25-.1 10.31 3.45S22 82 23 86c2 8.19 7.26 15.19 10.05 23.14 2.42 6.9 2.89 14.3 3.34 21.59.15 2.45.21 5.19-1.44 7a6.24 6.24 0 0 1-2.65 1.61c-4.17 1.36-8.91-.63-11.76-4s-4.07-7.78-4.6-12.14-.41-8.77-1-13.12C13.55 99.7 8.4 90.06 7.07 79.64Z"/>
        <path class="cls-4" d="M72.14 70.18a5.85 5.85 0 0 1 4-.84A5.37 5.37 0 0 1 79 71.12c2.18 2.47 2.46 6.16 1.64 9.35s-2.58 6-4.13 8.94c-1.79 3.33-3.33 6.78-4.91 10.21-1.66 3.62-3.6 7.48-7.16 9.27a9 9 0 0 1-13-7.39c-.27-3.73 1.8-7.25 4.26-10.07s5.41-5.23 7.51-8.33c2.94-4.4 4.34-10.25 8.93-12.92ZM50.39 141c.69 2.08 2.75 3.38 4.8 4.15a23.81 23.81 0 0 0 12.78.78 32.77 32.77 0 0 0 20.58-13.32c1.1-1.57 2.09-3.42 1.82-5.32a5.94 5.94 0 0 0-3.3-4.17 17.88 17.88 0 0 0-5.31-1.45c-4.52-.73-9.13-1.47-13.66-.75a22.18 22.18 0 0 0-17.55 15.74 7.65 7.65 0 0 0-.16 4.34Z"/>
        <path class="cls-7" d="M10 142.29c5.37 4.61 12.37 6.79 18.34 10.58 2.78 1.75 5.44 4 6.62 7.07a10 10 0 0 1-5.85 12.57 7.36 7.36 0 0 1-4 .32 10.41 10.41 0 0 1-5.08-3.4c-6-6.4-9.78-14.72-16-20.92a16.65 16.65 0 0 1-3.42-4c-.8-1.57-.86-3.68.38-4.93s3.3-1.19 4.87-.46a19.36 19.36 0 0 1 4.14 3.17Z"/>
        <path class="cls-5" d="M44 198.35a.35.35 0 0 0 .29-.4 391.8 391.8 0 0 1 6.24-144.68.36.36 0 0 0-.26-.42.35.35 0 0 0-.42.26 392.35 392.35 0 0 0-6.24 144.94.36.36 0 0 0 .39.3Z"/>
        <path class="cls-5" d="M40.1 130a.35.35 0 0 0 .33-.22 84.68 84.68 0 0 1 13.28-23.65c1.47-1.85 3-3.69 4.59-5.46 4.8-5.57 9.76-11.32 12.07-18.38a.35.35 0 0 0-.22-.44.36.36 0 0 0-.44.23c-2.27 6.92-7.19 12.66-11.94 18.17-1.54 1.78-3.13 3.63-4.61 5.49a85.65 85.65 0 0 0-13.39 23.84.35.35 0 0 0 .23.42.25.25 0 0 0 .1 0ZM41.76 178c-3.37-7.81-17.91-22-32.76-31.64a.35.35 0 0 0-.49.1.36.36 0 0 0 .1.49c15.74 10.27 31.14 25.55 33 32.71a.36.36 0 0 0 .34.26.33.33 0 0 0 .16-.07V176a16.25 16.25 0 0 0-.35 2ZM79.07 128.67c-2.92-.44-7 .32-12.16 2.24-6 2.23-12.18 4.54-17.39 8.49a24.1 24.1 0 0 0-9.09 12.83v3.83a.32.32 0 0 0 .15-.25c.26-5.75 3.67-11.53 9.36-15.85 5.13-3.89 11.27-6.18 17.21-8.4 5-1.85 9.06-2.61 11.82-2.2a.36.36 0 0 0 .4-.3.35.35 0 0 0-.3-.39ZM41 170.57a.35.35 0 0 0 .27-.41 300.76 300.76 0 0 0-12-42.34c-2-5.38-4.16-10.82-6.24-16.08-3.18-8-6.47-16.33-9.33-24.62a.34.34 0 0 0-.44-.22.35.35 0 0 0-.22.44c2.9 8.31 6.19 16.66 9.37 24.66 2.07 5.25 4.22 10.69 6.24 16.07a300.54 300.54 0 0 1 12 42.23.34.34 0 0 0 .35.27ZM44.63 82.17a.33.33 0 0 0 .17 0c3.1-1.83 6.2-3.75 9.2-5.75a.35.35 0 0 0-.38-.59c-2.91 1.92-5.88 3.76-8.85 5.48L40.1 68.49a.34.34 0 0 0-.45-.2.33.33 0 0 0-.2.44l4.85 13.21a.34.34 0 0 0 .21.21.25.25 0 0 0 .12.02ZM47.51 65.7a.37.37 0 0 0 .18 0 33.84 33.84 0 0 0 9.13-8.19.35.35 0 0 0-.55-.43 32.9 32.9 0 0 1-8.56 7.78c-.72-2.37-1.51-4.76-2.37-7.09a.35.35 0 0 0-.66.24c.91 2.46 1.75 5 2.49 7.49a.37.37 0 0 0 .21.23ZM50.22 53.34a.37.37 0 0 0 .22-.08 54.38 54.38 0 0 0 7.11-6.88.34.34 0 0 0 0-.49.35.35 0 0 0-.49 0 53.44 53.44 0 0 1-6.68 6.52 18.34 18.34 0 0 1-.73-2c-.12-.37-.24-.73-.38-1.11a.34.34 0 0 0-.42-.21.34.34 0 0 0-.25.4v.27a.36.36 0 0 0 .11.19l.23.68a16.79 16.79 0 0 0 1 2.45.34.34 0 0 0 .24.18Z"/>
        <path class="cls-5" d="M57.18 101.82A69.86 69.86 0 0 0 67 101a.35.35 0 0 0 .29-.4.34.34 0 0 0-.4-.29 67.88 67.88 0 0 1-9.34.77v-6.59a.34.34 0 0 0-.34-.35.34.34 0 0 0-.35.35v7a.33.33 0 0 0 .11.25.31.31 0 0 0 .21.08ZM63.29 94.63a.33.33 0 0 0 .17 0 65.32 65.32 0 0 0 10.77-7.44.35.35 0 0 0 0-.5.36.36 0 0 0-.49 0 64.63 64.63 0 0 1-10.18 7.1c-.12-1.94-.2-3.89-.23-5.81a.35.35 0 0 0-.35-.34.35.35 0 0 0-.34.35c0 2.11.13 4.26.27 6.39a.37.37 0 0 0 .19.29.29.29 0 0 0 .19-.04ZM30.43 132.43h.15a.34.34 0 0 0 .2-.33l-.43-19.95a.35.35 0 0 0-.35-.34.34.34 0 0 0-.34.36l.42 19.12-10.8-10a.34.34 0 0 0-.49 0 .35.35 0 0 0 0 .49l11.4 10.52a.34.34 0 0 0 .24.13ZM24.3 116a.47.47 0 0 0 .2-.06.39.39 0 0 0 .15-.28l.55-18.09a.36.36 0 0 0-.34-.36.33.33 0 0 0-.36.34l-.5 17.6-4.26-1.49a.37.37 0 0 0-.45.22.35.35 0 0 0 .22.44l4.67 1.68ZM18.93 102.07a.35.35 0 0 0 .35-.35l-.11-20.94a.35.35 0 0 0-.35-.34.34.34 0 0 0-.35.35l.11 20.93a.35.35 0 0 0 .35.35ZM21.56 165.63l9.53-.54a.39.39 0 0 0 .25-.12.37.37 0 0 0 .08-.26l-.66-7.35c0-.19-.14-.31-.38-.31a.34.34 0 0 0-.31.38l.62 7-9.17.53a.35.35 0 0 0-.33.37.34.34 0 0 0 .37.3ZM25.29 159.39a.37.37 0 0 0 .26-.12.35.35 0 0 0 .05-.38l-2.85-6a.35.35 0 1 0-.63.3l2.52 5.32-12.3-3.61a.34.34 0 0 0-.43.23.35.35 0 0 0 .23.44l13.05 3.83Z"/>
        <path class="cls-7" d="M63.18 162.23c-3.45 3-8 4.36-11.78 6.79a10 10 0 0 0-4.26 4.54 6.45 6.45 0 0 0 3.76 8.08 4.73 4.73 0 0 0 2.55.2 6.63 6.63 0 0 0 3.26-2.18c3.88-4.11 6.29-9.45 10.3-13.44a10.48 10.48 0 0 0 2.19-2.56 2.45 2.45 0 0 0-3.37-3.46 12 12 0 0 0-2.65 2.03Z"/>
        <path class="cls-5" d="M42.75 185.14c2.16-5 11.5-14.09 21-20.3a.22.22 0 0 1 .31.07.22.22 0 0 1-.06.31c-10.11 6.59-20 16.41-21.18 21a.21.21 0 0 1-.21.17.19.19 0 0 1-.1-.05v-2.46a10.63 10.63 0 0 1 .24 1.26Z"/>
        <path class="cls-5" d="m55.73 177.22-6.12-.35a.21.21 0 0 1-.16-.08.18.18 0 0 1 0-.16l.42-4.72c0-.12.09-.2.25-.2a.22.22 0 0 1 .2.24l-.4 4.48 5.89.34a.23.23 0 0 1 .19.23.23.23 0 0 1-.27.22ZM53.33 173.21a.25.25 0 0 1-.17-.08.23.23 0 0 1 0-.24L55 169a.21.21 0 0 1 .3-.11.23.23 0 0 1 .11.3l-1.62 3.42 7.9-2.33a.23.23 0 0 1 .12.44l-8.41 2.48ZM81.76 135.83a.38.38 0 0 0 .26-.11.36.36 0 0 0 0-.5c-2.85-2.66-10.16-4.31-12.43-4.78l6.29-5.89a.35.35 0 1 0-.47-.51l-6.8 6.36a.36.36 0 0 0-.1.35.37.37 0 0 0 .28.25c.09 0 9.58 1.77 12.75 4.73a.33.33 0 0 0 .22.1ZM72.77 140.32a.35.35 0 0 0 .25-.1.34.34 0 0 0 0-.49c-.21-.22-5.16-5.22-11-6.59l3.44-7.71a.36.36 0 0 0-.18-.47.36.36 0 0 0-.46.18l-3.61 8.11a.37.37 0 0 0 0 .31.36.36 0 0 0 .25.18c5.85 1.17 11 6.42 11.1 6.47a.32.32 0 0 0 .21.11Z"/>
        <path class="cls-8" d="M24.68 194.38h36.44l-.71 28.94H25.39l-.71-28.94z"/>
        <rect class="cls-10" x="56.3" y="198.16" width="1.53" height="21.81" rx=".33"/>
        <rect class="cls-10" x="50.71" y="198.16" width="1.53" height="21.81" rx=".33"/>
        <rect class="cls-10" x="45.34" y="198.16" width="1.53" height="21.81" rx=".33"/>
        <rect class="cls-10" x="39.75" y="198.16" width="1.53" height="21.81" rx=".33"/>
        <rect class="cls-10" x="34.05" y="198.16" width="1.53" height="21.81" rx=".33"/>
        <rect class="cls-10" x="28.46" y="198.16" width="1.53" height="21.81" rx=".33"/>
        <path d="M122.32 205.77s35.55-20 42.19-18.47S193.72 202.85 195 203s38.07 2.68 44.55 5.05 15.44 8.69 17.94 4.15-2.5-19.25-21.3-23.34c0 0 17.71-.52 22.37-1.52s17.29-6.83 22.74-8.21 17.47-9 19.26-11.23-.48-8.8-10-7-14.82 5-14.82 5l-8.66 2.1s13.15-5.38 15.23-6 12.42-4.34 18.34-8.21 1.2-12.53-8.66-9-14 4.46-14 4.46-16.47 4.8-18.53 5.61-6.16.61-6.16.61 14.38-6.61 16.3-7.08 19.88-7.18 20.59-8.71 2.62-11-10-7.78-15.29 5.21-15.29 5.21a97.44 97.44 0 0 0-17.39 5.53 48.17 48.17 0 0 0-16.31 2.5l-3.32-.74s8.41-3.4 10-4 12.65-5.5 14.75-5.82 14.49-5 15.34-6.85 1.58-9.61-11.39-6.21-14.87 4.36-14.87 4.36l-8.92 2.94s-11.64 1.67-14.19 2.51c0 0-4.94-.62-6.6-1s-9-2.13-12.51-1.38c0 0-23.33-2.06-31.25 1.3 0 0-16.09 3.14-22.63 9.67 0 0-8.33 6.67-14.86 9s-26.43 11.42-26.43 11.42Z" fill="#e3865f"/>
        <path class="cls-12" d="M239.19 167.4a.32.32 0 0 1 .27-.3.33.33 0 0 1 .38.27 4.71 4.71 0 0 0 3.84 3.66c2.45-1.08 6.78-.92 10.27-.79a19 19 0 0 0 4.29-.08c1.74-.62 8.54-2.38 8.83-2.45a.32.32 0 0 1 .39.23.33.33 0 0 1-.23.4c-.07 0-7.06 1.83-8.77 2.43a17.25 17.25 0 0 1-4.53.12c-3.28-.12-7.78-.28-10.07.78a.41.41 0 0 1-.19 0s-3.87-.63-4.48-4.21ZM234.65 154.47a.33.33 0 0 1 .22-.29.32.32 0 0 1 .41.2c1.28 3.43 5.76 2.65 6 2.6a61.19 61.19 0 0 1 12-1.86.33.33 0 0 1 0 .65 60.63 60.63 0 0 0-11.87 1.84s-5.27 1-6.78-3a.59.59 0 0 1 .02-.14ZM220 134.25a.31.31 0 0 1 .07-.18.32.32 0 0 1 .46 0c3 2.57 7.47 9.86 7.66 10.17a.31.31 0 0 1-.11.44.31.31 0 0 1-.44-.1c0-.08-4.64-7.51-7.53-10a.34.34 0 0 1-.11-.33ZM279.21 149.9a.34.34 0 0 1 .28-.29.31.31 0 0 1 .37.27 24.73 24.73 0 0 0 2.65 7.71.33.33 0 0 1-.56.33 24.71 24.71 0 0 1-2.73-7.94.22.22 0 0 1-.01-.08ZM275.48 165.89a.33.33 0 0 1 .6-.16c.16.24 3.89 5.73 4.54 10.13a.33.33 0 1 1-.65.09c-.63-4.25-4.39-9.79-4.43-9.85a.37.37 0 0 1-.06-.21Z"/>
        <path class="cls-12" d="M260.12 170.13a.32.32 0 0 1 .18-.27.33.33 0 0 1 .44.14 19.42 19.42 0 0 1 1.9 7.88.33.33 0 0 1-.65 0 18.86 18.86 0 0 0-1.84-7.57.55.55 0 0 1-.03-.18ZM257.11 155.77a.33.33 0 0 1 .63-.1c.09.2 2.18 5 2.23 8a.34.34 0 0 1-.32.34.32.32 0 0 1-.33-.32c-.05-2.85-2.16-7.69-2.18-7.74a.41.41 0 0 1-.03-.18ZM264.56 137.06a.34.34 0 0 1 .26-.3.33.33 0 0 1 .39.25 24.62 24.62 0 0 0 2.56 6.58.32.32 0 0 1-.54.36 24.68 24.68 0 0 1-2.66-6.8.28.28 0 0 1-.01-.09ZM246.76 143.6a.33.33 0 0 1 .24-.3.34.34 0 0 1 .4.24c0 .06 1.6 6.25 2.88 8.55a.32.32 0 0 1-.12.44.34.34 0 0 1-.45-.12c-1.32-2.37-2.88-8.45-2.94-8.71a.17.17 0 0 1-.01-.1ZM249.49 143.07a.35.35 0 0 1 .12-.22.32.32 0 0 1 .46 0 11.07 11.07 0 0 1 1.67 4.13.33.33 0 0 1-.26.38.32.32 0 0 1-.38-.26 10.6 10.6 0 0 0-1.53-3.82.37.37 0 0 1-.08-.21ZM232.45 128.76a.35.35 0 0 1 .1-.21.32.32 0 0 1 .46 0c3.06 3.12 2.84 8.49 2.83 8.72a.33.33 0 0 1-.34.31.32.32 0 0 1-.31-.34c0-.06.21-5.32-2.65-8.24a.34.34 0 0 1-.09-.24ZM246.49 124.3a.32.32 0 0 1 .3-.3.32.32 0 0 1 .35.3c0 .06.5 6.59 2.21 8.65a.33.33 0 0 1 0 .46.32.32 0 0 1-.46 0c-1.83-2.22-2.33-8.75-2.35-9ZM203.27 171.82a.33.33 0 0 1 .64-.07c1.54 5.25 7.27 11.87 12.09 12.25 5.06.45 19.2 4.3 19.8 4.47a.32.32 0 1 1-.17.62c-.14 0-14.69-4-19.69-4.44-2.42-.21-5.16-1.85-7.72-4.61a22 22 0 0 1-4.91-8.14.49.49 0 0 1-.04-.08ZM199.16 128.9a.32.32 0 0 1 .16-.26.33.33 0 0 1 .45.12 88.42 88.42 0 0 1 6.46 14.49 28.14 28.14 0 0 0 12 14.47c2.86 1.42 9 5.21 9.06 5.25a.33.33 0 1 1-.34.56c-.06 0-6.18-3.82-9-5.22a25.19 25.19 0 0 1-6.31-5.06 27.23 27.23 0 0 1-6-9.8 87 87 0 0 0-6.41-14.37.28.28 0 0 1-.07-.18Z"/>
        <path class="cls-12" d="M162.27 151.4a.32.32 0 0 1 .14-.24c7.44-5.22 20-1.63 36.83 4 6.08 2 11.59 6.48 16.37 13.24a64 64 0 0 1 8 15.66.33.33 0 0 1-.21.41.32.32 0 0 1-.41-.21 63.28 63.28 0 0 0-7.88-15.49c-4.7-6.63-10.1-11-16.05-13-16.69-5.57-29.06-9.13-36.24-4.09a.33.33 0 0 1-.46-.08.39.39 0 0 1-.09-.2Z"/>
        <path class="cls-12" d="M200 144.55a.35.35 0 0 1 .17-.26.32.32 0 0 1 .44.13c.1.17 10 17.65 14.23 23a.33.33 0 0 1-.06.46.32.32 0 0 1-.45-.05c-4.28-5.37-14.18-22.89-14.28-23.07a.32.32 0 0 1-.05-.21ZM154.84 161.25a48.42 48.42 0 0 1 .74-5.47.33.33 0 0 1 .38-.26.32.32 0 0 1 .26.38c-2.1 10.89.12 18.39 2.36 22.76a21 21 0 0 0 5.36 6.91.32.32 0 0 1-.38.52A21 21 0 0 1 158 179a33 33 0 0 1-3.16-17.75ZM241.33 208.66a.26.26 0 0 1 0-.11 5.91 5.91 0 0 1 4-3.11c3-.65 6.62.89 10.86 4.57a.54.54 0 0 1 .1.16c.28 1 .34 3-1.42 3.76a.33.33 0 0 1-.42-.18.33.33 0 0 1 .18-.43c1.49-.61 1.15-2.44 1.05-2.88-4-3.49-7.46-5-10.2-4.36a5.33 5.33 0 0 0-3.53 2.74.33.33 0 0 1-.62-.16Z"/>
        <path d="m130.4 147.1.76 1.71 20.07 45.54-58.43 29S72 214.68 78.07 202s12.19-19.31 6.09-23.89S72 172 71.46 164.37s9.65-12.19 9.65-12.19Z" fill="#38437e"/>
        <path class="cls-14" d="M157.19 80.31v84.57l107.18-.88 1.47-84.28-51.09-49.33-57.56 49.92z"/>
        <path class="cls-9" d="m212.4 80.31 28.04-24.22 26.87 24.22v83.1H212.4v-83.1z"/>
        <path class="cls-15" d="m152.1 89.09 62.59-55.89 57.95 55.83 2.85-2.95-60.69-58.49-65.43 58.43 2.73 3.07z"/>
        <path class="cls-15" transform="rotate(-43.12 222.75916556 71.67507733)" d="M199.52 69.62h46.47v4.11h-46.47z"/>
        <path class="cls-16" d="M156.61 149.76h111.44v15.12H156.61z"/>
        <path fill="#5f4071" d="M156.61 149.76h55.06v15.12h-55.06z" style="mix-blend-mode:multiply" opacity=".52"/>
        <path class="cls-16" d="M220.78 115.74h15.66v23.49h-15.66z"/>
        <g class="cls-19">
          <path class="cls-15" d="M220.54 116.3v-.56h3.25l5.69 5.1a26.54 26.54 0 0 1 3.3 3.32 1.25 1.25 0 0 1 .32.72c0 .8-1.3.83-1.75 1.5s.09 1.47.59 2.05l4.27 4.95v5.86h-5.75a68.94 68.94 0 0 1-6.9-10.48 2.66 2.66 0 0 1-.37-1.11c0-1.15 1.23-1.82 2.14-2.53a1.42 1.42 0 0 0 .6-.87 1.56 1.56 0 0 0-.36-1 72.4 72.4 0 0 0-5.03-6.95Z"/>
        </g>
        <path class="cls-20" d="M220.19 115.16H237v24.66h-16.81Zm15.66 1.17h-14.48v22.32h14.48Z"/>
        <path class="cls-20" transform="rotate(180 228.61 127.515)" d="M228.02 115.92h1.17v23.2h-1.17z"/>
        <path class="cls-16" d="M233.44 82.21h15.66v23.49h-15.66z"/>
        <g class="cls-19">
          <path class="cls-15" d="M233.21 82.77v-.56h3.25l5.68 5.09a26.61 26.61 0 0 1 3.3 3.33 1.18 1.18 0 0 1 .32.71c0 .81-1.3.84-1.75 1.51s.09 1.46.59 2l4.27 5v5.86h-5.75a69.61 69.61 0 0 1-6.9-10.47 2.79 2.79 0 0 1-.36-1.11c0-1.16 1.23-1.82 2.13-2.54a1.43 1.43 0 0 0 .61-.86 1.61 1.61 0 0 0-.37-1 69.42 69.42 0 0 0-5.02-6.96Z"/>
        </g>
        <path class="cls-20" d="M232.85 81.62h16.84v24.67h-16.84Zm15.67 1.18H234v22.31h14.49Z"/>
        <path class="cls-20" transform="rotate(180 241.27 93.98)" d="M240.68 82.38h1.17v23.2h-1.17z"/>
        <path class="cls-16" d="M178.1 82.21h15.66v23.49H178.1z"/>
        <g class="cls-19">
          <path class="cls-15" d="M177.87 82.77v-.56h3.25l5.68 5.09a26.61 26.61 0 0 1 3.3 3.33 1.18 1.18 0 0 1 .32.71c0 .81-1.3.84-1.75 1.51s.09 1.46.59 2l4.27 5v5.86h-5.75a69.61 69.61 0 0 1-6.9-10.47 2.81 2.81 0 0 1-.37-1.11c0-1.16 1.23-1.82 2.14-2.54a1.43 1.43 0 0 0 .61-.86 1.61 1.61 0 0 0-.37-1 72.77 72.77 0 0 0-5.02-6.96Z"/>
        </g>
        <path class="cls-20" d="M177.51 81.62h16.84v24.67h-16.84Zm15.66 1.18h-14.48v22.31h14.48Z"/>
        <path class="cls-20" transform="rotate(180 185.93 93.98)" d="M185.34 82.38h1.17v23.2h-1.17z"/>
        <path class="cls-16" d="M244.61 115.74h15.66v23.49h-15.66z"/>
        <g class="cls-19">
          <path class="cls-15" d="M244.38 116.3v-.56h3.25l5.68 5.1a25.87 25.87 0 0 1 3.3 3.32 1.18 1.18 0 0 1 .32.72c0 .8-1.3.83-1.75 1.5s.09 1.47.59 2.05l4.27 4.95v5.86h-5.75a69.7 69.7 0 0 1-6.9-10.48 2.81 2.81 0 0 1-.37-1.11c0-1.15 1.23-1.82 2.14-2.53a1.48 1.48 0 0 0 .61-.87 1.63 1.63 0 0 0-.37-1 74.08 74.08 0 0 0-5.02-6.95Z"/>
        </g>
        <path class="cls-20" d="M244 115.16h16.84v24.66H244Zm15.66 1.17H245.2v22.32h14.48Z"/>
        <path class="cls-20" transform="rotate(180 252.44 127.515)" d="M251.85 115.92h1.17v23.2h-1.17z"/>
        <path class="cls-16" transform="rotate(180 185.44 136.9)" d="M174.38 115.27h22.12v43.26h-22.12z"/>
        <circle class="cls-16" cx="213.57" cy="57.9" r="7.73"/>
        <path class="cls-20" d="M205.25 57.9a8.32 8.32 0 1 1 8.32 8.32 8.33 8.33 0 0 1-8.32-8.32Zm1.18 0a7.15 7.15 0 1 0 7.14-7.15 7.14 7.14 0 0 0-7.14 7.15Z"/>
        <path class="cls-20" transform="rotate(180 213.645 57.945)" d="M213.03 50.17h1.22v15.56h-1.22z"/>
        <path class="cls-20" transform="rotate(90 213.315 58.195)" d="M212.7 50.52h1.22v15.34h-1.22z"/>
        <path class="cls-15" transform="rotate(180 185.44 163.29)" d="M165.23 161.65h40.42v3.28h-40.42z"/>
        <path class="cls-15" transform="rotate(180 185.44 160.06)" d="M167.77 158.42h35.33v3.28h-35.33z"/>
        <path class="cls-3" d="M185.76 118.78a4.84 4.84 0 0 1 4.84 4.83v15.14h-9.67v-15.14a4.83 4.83 0 0 1 4.83-4.83Z"/>
        <path class="cls-16" transform="rotate(180 185.915 128.76)" d="M185.38 118.34h1.06v20.85h-1.06z"/>
        <path class="cls-16" transform="rotate(180 185.805 129.35)" d="M180.8 128.91h10.02v.88H180.8z"/>
        <circle cx="193.53" cy="140.63" r=".86" fill="#ecb64b"/>
        <path class="cls-16" d="M136.87 46.6a14 14 0 1 1 19-5.92 14.08 14.08 0 0 1-19 5.92Zm12.07-23a12 12 0 1 0 5 16.13 12 12 0 0 0-5-16.16Z"/>
        <path class="cls-8" d="m150.22 70.05 2-22.67a3.37 3.37 0 0 0-2.69-3.62l-11.39-1.88a3.35 3.35 0 0 0-3.71 2.61l-5 22.21a9.2 9.2 0 0 0 7.4 11.1l2.82.46a9.13 9.13 0 0 0 10.57-8.21Zm-1.91-21.7a1.56 1.56 0 0 1-1.79 1.29l-7.28-1.2a1.55 1.55 0 0 1-1.24-1.79l.11-.66a1.55 1.55 0 0 1 1.79-1.28l7.27 1.2a1.55 1.55 0 0 1 1.28 1.79Z"/>
        <path class="cls-16" d="M137.86 45.63c.09-.24.17-.5.26-.75l-.28-.14a12 12 0 0 1-3.84-3.15 1.56 1.56 0 0 1-.77.41c-.43.09-.9.15-1.37.21a14 14 0 0 0 5 4.39l.55.28Z"/>
        <path class="cls-14" d="m120.95 49.86-6.63 7.01.6.57-2.88 3.05-.61-.58-1.15 1.22 1.22 1.15-2.02 2.14-1.22-1.16-.87.92.61.57-3.17 3.35-.61-.57-1.92 2.03 5.47 1.54 16.83-17.78-3.65-3.46z"/>
        <path class="cls-14" d="m131.78 57.62 7.69-11.21a2.33 2.33 0 0 0-.36-3l-8.48-8a2.21 2.21 0 0 0-3-.28l-10.76 8.66a2.56 2.56 0 0 0-.29 3.74L128 58.23a2.67 2.67 0 0 0 3.78-.61Zm4.68-12.55a1.15 1.15 0 0 1-1.61 0l-6.57-6.22a1.14 1.14 0 0 1-.05-1.61l.17-.18a1.15 1.15 0 0 1 1.61 0l6.57 6.22a1.14 1.14 0 0 1 0 1.61Z"/>
        <path class="cls-16" d="M129.35 33.75a14.24 14.24 0 0 0 .64 4.59c.7-.12.58 1.19 1.21 1.06 0 0 1.73 1.53 1.76.65a14.24 14.24 0 0 1-1.52-5.92 9.32 9.32 0 0 1-2.09-.38Z"/>
        <rect class="cls-8" x="143.86" y="19.59" width="6.56" height="3.46" rx="1.31" transform="rotate(-73.61 147.1331762 21.32249339)"/>
        <circle class="cls-15" cx="140.18" cy="67.83" r="7.7" transform="rotate(-79.88 140.18250992 67.82623597)"/>
        <path class="cls-3" d="m143.87 66.65-3.46-4.08-4.49 2.54-1.32 6.79 7.96 1.54 1.31-6.79z"/>
        <path class="cls-22" d="M135.48 65.68a.35.35 0 0 1-.24-.17.36.36 0 0 1 .13-.49l4.86-2.76a.37.37 0 0 1 .45.08l3.7 4.39a.35.35 0 0 1 0 .49.34.34 0 0 1-.49 0L140.33 63l-4.61 2.62a.41.41 0 0 1-.24.06Z"/>
        <path class="cls-22" transform="rotate(10.96 141.05140398 70.57114961)" d="M139.82 68h2.38v5.08h-2.38z"/>
        <path class="cls-15" transform="rotate(10.96 137.6922263 68.9999136)" d="M136.16 67.33h2.99v3.31h-2.99z"/>
        <path class="cls-15" d="M140.73 65.6a.87.87 0 0 0-1.7-.33.87.87 0 1 0 1.7.33Z"/>
        <path class="cls-3" transform="rotate(-79.03 137.65398885 68.98977758)" d="M135.8 68.9h3.71v.18h-3.71z"/>
        <path class="cls-3" transform="rotate(-79.04 137.64946706 68.98736776)" d="M137.57 67.27h.18v3.44h-.18z"/>
        <path class="cls-3" transform="rotate(-79.03 139.87569355 65.4439092)" d="M138.91 65.35h1.93v.18h-1.93z"/>
        <path class="cls-3" transform="rotate(-79.03 139.88569355 65.4317847)" d="M139.79 64.43h.18v2.01h-.18z"/>
        <path class="cls-15" transform="rotate(10.97 141.09471895 69.48038934)" d="M140.36 68.39h1.65v2.28h-1.65z"/>
        <path class="cls-3" d="m140.24 71.64-.29-.06a.09.09 0 0 1-.07-.1.08.08 0 0 1 .1-.07h.2l.08-.41h-.17a.09.09 0 0 1 0-.17h.26a.08.08 0 0 1 .07.1l-.11.59a.09.09 0 0 1-.07.12Z"/>
      </g>
    </g>
  </g>
</svg>
