<svg width="32" viewBox="0 0 32 32" aria-hidden="true" xmlns="http://www.w3.org/2000/svg" fill="#55ACEE"><path d="M29.91 7a10.14 10.14 0 0 1-3.44 1 6.06 6.06 0 0 0 2.62-3.44A11 11 0 0 1 25.29 6 5.68 5.68 0 0 0 21 4a6.15 6.15 0 0 0-6 6.3v-.15a6.44 6.44 0 0 0 .17 1.31A15.39 15.39 0 0 1 4 5.41a5.81 5.81 0 0 0-.79 2.89 6 6 0 0 0 2.4 4.83 4.84 4.84 0 0 1-2.48-.7v.26a5.92 5.92 0 0 0 4.58 5.86 9 9 0 0 1-1.47.18 4.52 4.52 0 0 1-1-.09 5.85 5.85 0 0 0 5.28 4.21 10.77 10.77 0 0 1-7.1 2.56A7.12 7.12 0 0 1 2 25.32 16.51 16.51 0 0 0 10.83 28C21.3 28 27 18.82 27 10.86v-.64A16.34 16.34 0 0 0 29.91 7z"/></svg>
