<svg xmlns="http://www.w3.org/2000/svg" viewBox="0 0 24 24" width="20" height="20"><g transform="translate(2 2)" fill-rule="nonzero" fill="none"><circle cx="10" cy="10" r="10" fill="#F0F0F0"/><path fill="#0052B4" d="M2.067 3.912a9.991 9.991 0 00-1.723 3.48h5.203l-3.48-3.48zm17.589 3.479a9.983 9.983 0 00-1.723-3.48l-3.48 3.48h5.203zM.344 12.609a9.983 9.983 0 001.723 3.48l3.48-3.48H.344zM16.088 2.067a9.974 9.974 0 00-3.48-1.723v5.203l3.48-3.48zM3.912 17.933a9.974 9.974 0 003.48 1.723v-5.203l-3.48 3.48zM7.391.344a9.983 9.983 0 00-3.48 1.723l3.48 3.48V.344zm5.218 19.312a9.983 9.983 0 003.48-1.723l-3.48-3.48v5.203zm1.844-7.047l3.48 3.48a9.983 9.983 0 001.723-3.48h-5.203z"/><g fill="#D80027"><path d="M19.915 8.696h-8.61V.085a10.072 10.072 0 00-2.609 0v8.61H.085a10.072 10.072 0 000 2.609h8.61v8.611a10.048 10.048 0 002.609 0v-8.61h8.611a10.048 10.048 0 000-2.609z"/><path d="M12.609 12.609l4.462 4.462c.205-.205.401-.42.588-.642l-3.82-3.82h-1.23zm-5.218 0L2.93 17.07c.205.205.42.401.642.588l3.82-3.82v-1.23zm0-5.218L2.93 2.93c-.205.205-.401.42-.588.642l3.82 3.82h1.23zm5.218 0L17.07 2.93a10.21 10.21 0 00-.642-.588l-3.82 3.82v1.23z"/></g></g></svg>
