<svg xmlns="http://www.w3.org/2000/svg" style="width:44px" viewBox="0 0 44 44" focusable="false" aria-hidden="true"><circle fill="#a6e5ff" cx="22" cy="20" r="16"></circle><path fill="#0d4599" d="M22,9.429a6.119,6.119,0,0,1,6.072,6.15v1.744a9.53,9.53,0,0,1-2.906,6.462,2.429,2.429,0,0,0,1.192,4.166l2.454.471c5.094,1.23,7.76,3.59,7.76,5.292v4.857H7.428V33.714c0-1.7,2.675-4.07,7.787-5.3l2.4-.519a2.429,2.429,0,0,0,1.146-4.147,9.365,9.365,0,0,1-2.83-6.427V15.578A6.117,6.117,0,0,1,22,9.429h0M22,7h0a8.538,8.538,0,0,0-8.5,8.579v1.744a11.764,11.764,0,0,0,3.6,8.2l-2.423.524C8.955,27.416,5,30.332,5,33.714v4.857A2.428,2.428,0,0,0,7.428,41H36.572A2.428,2.428,0,0,0,39,38.571V33.714c0-3.382-3.955-6.3-9.675-7.666l-2.509-.482A11.882,11.882,0,0,0,30.5,17.323V15.572A8.538,8.538,0,0,0,22,7Z"></path><path fill="#f2a619" d="M41.586,22.086a.119.119,0,0,0-.04-.007l-1.132-.129a3.239,3.239,0,0,0-.257-.621l.711-.893c.007-.011.018-.022.025-.032a.541.541,0,0,0-.075-.661l-.561-.561a.547.547,0,0,0-.661-.075c-.01.007-.021.018-.032.025l-.893.711a3.239,3.239,0,0,0-.621-.257l-.129-1.132c0-.015,0-.029,0-.04A.542.542,0,0,0,37.4,18H36.6a.542.542,0,0,0-.522.414c0,.011,0,.025,0,.04l-.129,1.132a3.239,3.239,0,0,0-.621.257h0l-.889-.711c-.011-.007-.022-.018-.032-.025a.547.547,0,0,0-.661.075l-.561.561a.541.541,0,0,0-.075.661c.007.01.018.021.025.032l.711.889v0a3.239,3.239,0,0,0-.257.621l-1.132.129a.119.119,0,0,0-.04.007A.534.534,0,0,0,32,22.6V23.4a.542.542,0,0,0,.414.522c.011,0,.025,0,.04,0l1.132.129a3.62,3.62,0,0,0,.257.621l-.711.893c-.007.011-.018.022-.025.032a.541.541,0,0,0,.075.661l.561.561a.549.549,0,0,0,.378.153.534.534,0,0,0,.283-.078c.01-.007.021-.018.032-.025l.893-.711a3.62,3.62,0,0,0,.621.257l.129,1.132c0,.015,0,.029,0,.04A.542.542,0,0,0,36.6,28H37.4a.542.542,0,0,0,.522-.414c0-.011,0-.025,0-.04l.129-1.132a3.62,3.62,0,0,0,.621-.257l.893.711c.011.007.022.018.032.025a.534.534,0,0,0,.283.078.549.549,0,0,0,.378-.153l.561-.561a.541.541,0,0,0,.075-.661c-.007-.01-.018-.021-.025-.032l-.711-.893a3.62,3.62,0,0,0,.257-.621l1.132-.129c.015,0,.029,0,.04,0A.542.542,0,0,0,42,23.4V22.6A.534.534,0,0,0,41.586,22.086ZM37,24.071A1.071,1.071,0,1,1,38.071,23,1.074,1.074,0,0,1,37,24.071Z"></path></svg>
