<svg width="44" height="44" viewBox="0 0 44 44" fill="none" xmlns="http://www.w3.org/2000/svg">
  <path
    d="M39.729 23.724H31.281V4.414C31.2772 3.08238 30.1986 2.00384 28.867 2H19.212C17.8812 2.00494 16.8038 3.08316 16.8 4.414V23.724H8.35C7.023 23.724 6.679 24.517 7.587 25.485L22.387 41.274C22.8112 41.736 23.4097 41.999 24.037 41.999C24.6643 41.999 25.2628 41.736 25.687 41.274L40.487 25.485C41.4 24.517 41.057 23.724 39.729 23.724Z"
    fill="#A6E5FF"
  />
  <path
    fillRule="evenodd"
    clipRule="evenodd"
    d="M22.8 4H8.4C7.07452 4 6 5.07452 6 6.4V37.6C6 38.2365 6.25286 38.847 6.70294 39.2971C7.15303 39.7471 7.76348 40 8.4 40H22.8C24.1255 40 25.2 38.9255 25.2 37.6V6.4C25.2 5.07452 24.1255 4 22.8 4ZM10.8 6.4C10.8 7.06274 11.3373 7.6 12 7.6H19.2C19.8627 7.6 20.4 7.06274 20.4 6.4H22.8V30.4H8.4V6.4H10.8ZM8.4 32.8V37.6H22.8V32.8H8.4Z"
    fill="#0D4599"
  />
  <path
    d="M15.6 36.636C16.2628 36.636 16.8 36.0988 16.8 35.436C16.8 34.7733 16.2628 34.236 15.6 34.236C14.9373 34.236 14.4 34.7733 14.4 35.436C14.4 36.0988 14.9373 36.636 15.6 36.636Z"
    fill="#F2A619"
  />
</svg>
