<svg id="Build_Layer" data-name="Build Layer" xmlns="http://www.w3.org/2000/svg" viewBox="0 0 150 150"><defs><style>.cls-1{fill:#b33f37;}.cls-2{fill:#d1d1d5;}.cls-3{fill:#001751;}.cls-4{fill:#fff;}</style></defs><title>icon-name-md-outline copy 127</title><circle class="cls-1" cx="75" cy="75" r="75"/><path class="cls-2" d="M73.3,27.219c-1.366,7.52-3.628,25.344-3.628,25.344l15.583-.849C83.476,48.151,83.037,28.067,73.3,27.219Z"/><path class="cls-3" d="M93.282,48.8c5.108,14.977,11.645,24.273,16.305,32.374,6.174,16.751,6.275,31.479,3.661,39.6,13.309-8.22,15.455-13.425,17.279-20.73a51.625,51.625,0,0,0-.583-14.354l-3.61-.225,2.933-3.272c-1.8-5.768-6.255-11.9-12.528-23.246l-3.6.121,2.093-2.81s-7.57-25.5-25.789-26.464Z"/><path class="cls-3" d="M82.937,29.862c-6.735.071-14.834-.536-17.146,2.284-1.657,2.021,3.61,10.379,3.61,10.379,4.85-1.918,7.81-6.516,12.465-5.866Z"/><path class="cls-4" d="M122.307,96.352c-7.215-5.422-12.8-14.424-17.036-22.332-3.851-7.189-8.11-15.868-10.28-22.71-4.532-14.291-2.22-23.647-11.954-24.495C82.568,29.392,82,32.638,81.443,36.6a13.9,13.9,0,0,0-2.268-.2c-11.166-.034-47.456,24-52.618,27.431-5.146,3.423-1.881,20.319,4.1,19.642,3.5-.4,32.573-4.13,32.573-4.13,4.882,0,6.226,20.07,8.655,32.219l1.844,9.239a3.517,3.517,0,0,0,3.7,2.828A57.959,57.959,0,0,0,122.307,96.352Z"/><path class="cls-3" d="M30.971,68.019c.376,3.836,1.88,15.192-.106,15.394-5.986.609-9.244-16.219-4.1-19.642C28.414,62.454,30.412,62.319,30.971,68.019Z"/></svg>
