<svg xmlns="http://www.w3.org/2000/svg" xmlns:xlink="http://www.w3.org/1999/xlink" id="Layer_1" data-name="Layer 1" viewBox="0 0 415.07 849.01"><defs><style>.cls-1,.cls-10,.cls-5{fill:none;}.cls-2{fill:#f6ce9b;}.cls-3{fill:#f1ae34;}.cls-4{fill:#136ffa;}.cls-5{stroke:#105bce;}.cls-10,.cls-5{stroke-miterlimit:10;stroke-width:1.59px;}.cls-6{fill:#63d1fd;}.cls-7{fill:#e8e8e9;}.cls-8{clip-path:url(#clip-path);}.cls-9{fill:#e2a65b;}.cls-10{stroke:#136ffa;}</style><clipPath id="clip-path"><path class="cls-1" d="M236.59,139.23c-1.78-2.39-5.44-5.12-6.45-11.65l-2-13c-3.64-23.6-23.45-38.27-44.57-35s-35.67,22.63-32,46.22c2.25,14.63,12.2,17.88,17.43,29.56,7.14,16-1.95,51.37-1.95,51.37h43.72l-5-25.05c-1.58-8.4,3.84-8.95,7.49-9.52l8.39-1.29c5.38-.82,9.34-3.95,9.1-12.41l-.06-9.93a4,4,0,0,1,3.43-4l.27,0C237.26,144.05,238.37,141.62,236.59,139.23Z"/></clipPath></defs><title>Artboard 11</title><path class="cls-2" d="M311.5,437.2c1.89,12.09,1.64,24.36-4.6,34.05-5.75,8.93-15.19,9.67-23.06,2.78-14.08-12.33,4.73-23.93,7.66-33.37-.58-1.07,1.12-27.85.59-28.94l16.51-.4Z"/><path class="cls-3" d="M346,768.85c-14.19-4.17-44.39-16.53-38.69-43.37l-27.75,3.12L280.9,784l75.9,1.09-1-4.89C354.62,774.61,350.85,770.27,346,768.85Z"/><path class="cls-3" d="M144.6,786c-9.61-11.24-28.17-38.07-8.75-57.45L110.9,716,81.81,763.16l63,42.34,1.81-4.66A14.59,14.59,0,0,0,144.6,786Z"/><path class="cls-4" d="M237.28,350.83l1.92,3.79c.63,1.26,1.3,2.55,1.84,3.74l1.7,3.64.85,1.82.78,1.78c2.11,4.75,4,9.4,5.89,14,3.69,9.22,7,18.26,10.2,27.29,6.37,18,12.15,35.92,17.71,53.82s10.84,35.77,16,53.67q3.84,13.43,7.57,26.87l3.7,13.47,3.66,13.58.57,2.11c.08.33.15.67.21,1l.83,5.57.77,5.41,1.46,10.77q1.41,10.76,2.64,21.51,2.49,21.52,4.27,43.16c1.17,14.44,2.09,28.94,2.64,43.55.25,7.31.43,14.64.47,22s-.06,14.8-.32,22.28H273.87c-.29-6.66-.74-13.37-1.29-20.1s-1.28-13.52-2.05-20.3c-1.58-13.58-3.52-27.2-5.72-40.82s-4.65-27.24-7.31-40.82q-2-10.18-4.14-20.33l-2.19-10.11-1.12-5-1.12-4.85.77,3.11-4.54-12.78-4.65-12.85q-4.68-12.86-9.46-25.66-9.59-25.59-19.62-50.87c-6.71-16.81-13.6-33.5-20.8-49.68-3.6-8.08-7.27-16.07-11-23.68-1.88-3.79-3.79-7.52-5.7-11l-.72-1.34-.72-1.25L171,394.78c-.47-.87-.94-1.58-1.4-2.34l-1.39-2.27Z"/><path class="cls-4" d="M192.18,388.74a149.77,149.77,0,0,1,7.36,26.44A240.59,240.59,0,0,1,203,440.67a422.91,422.91,0,0,1,.67,49.91c-.67,16.49-2.17,32.88-3.62,49.2L199,552c-.34,4.08-.68,8.15-1,12.22s-.6,8.14-.87,12.21-.5,8.1-.78,12.34l-.26,4a3.56,3.56,0,0,1-.08.57l-.33,1.59-.31,1.41-.63,2.75-1.29,5.38c-.87,3.56-1.78,7.09-2.7,10.6-1.82,7-3.8,14-5.8,20.92-4,13.89-8.52,27.6-13.29,41.28-2.39,6.84-5,13.62-7.61,20.4s-5.43,13.54-8.36,20.25-6.05,13.41-9.26,20.08c-1.65,3.33-3.29,6.65-5,10s-3.55,6.6-5.31,9.91l-42.54-23.8q4.61-8.26,8.58-17c.68-1.45,1.32-2.94,2-4.42s1.27-3,1.87-4.46l1.83-4.49,1.76-4.55c4.55-12.19,8.53-24.72,11.89-37.49,1.71-6.37,3.31-12.79,4.7-19.26s2.74-13,4-19.48,2.24-13.06,3.2-19.58c.47-3.27.89-6.53,1.28-9.77l.56-4.82.24-2.37.11-1.14,0-.54c0-.18,0-.37,0-.44l-.34,4.57c-.3-3.78-.56-7.8-.93-11.72s-.74-7.88-1.18-11.82-.91-7.89-1.42-11.83L130,541.6c-2.27-15.73-4.95-31.38-7.24-46.91s-4.38-30.92-6-46c-.78-7.54-1.41-15-1.84-22.3s-.77-14.42-.51-21Z"/><path class="cls-5" d="M125.2,452.71s30,2.3,25.58-28.43"/><path class="cls-2" d="M85.47,434.48c1.88,12.1,1.64,24.36-4.6,34-5.76,8.94-15.2,9.68-23.06,2.79-14.09-12.34,4.72-23.94,7.66-33.38-.58-1.07,1.11-27.85.59-28.93l16.51-.4Z"/><path class="cls-6" d="M223.9,201H206.49c25.29,84.73,62.9,174,78.3,235.2l26.9-2.49s22.26-125.82-58.53-217C247.84,210.68,231.93,201,223.9,201Z"/><path class="cls-6" d="M141.81,203.73h0a15.07,15.07,0,0,1,16.13,19.53C133.13,301.1,100.58,380.37,86.52,436.2l-26.9-2.49S35.38,310.18,117.36,219.15C122,214,135,204.54,141.81,203.73Z"/><path class="cls-2" d="M236.59,139.23c-1.78-2.39-5.44-5.12-6.45-11.65l-2-13c-3.64-23.6-23.45-38.27-44.57-35s-35.67,22.63-32,46.22c2.25,14.63,12.2,17.88,17.43,29.56,7.14,16-1.95,51.37-1.95,51.37h43.72l-5-25.05c-1.58-8.4,3.84-8.95,7.49-9.52l8.39-1.29c5.38-.82,9.34-3.95,9.1-12.41l-.06-9.93a4,4,0,0,1,3.43-4l.27,0C237.26,144.05,238.37,141.62,236.59,139.23Z"/><path class="cls-7" d="M213.47,194.3c-2.72,12.45-31.65,12.45-47.7,2.23s-57.54,209.52-57.54,209.52-8.61,22,5.62,22c18.48,0,151.67-16.75,151.67-16.75S216.19,181.85,213.47,194.3Z"/><path class="cls-3" d="M182.85,79.6c-21.45,3.25-36.23,22.62-32.53,46.22,2.29,14.63,12.4,17.88,17.71,29.56,2,4.43,2.94,16.61,3.64,18.07h0l12.53-19.9s-12.36,6.62-13.46-12.72c-.89-15.75,11.41-17.56,17.51-1.82a1.52,1.52,0,0,0,2.73.24c9.11-16.1,51.07-21.7,34.51-44.78C213.52,77.79,191.74,78.25,182.85,79.6Z"/><g class="cls-8"><path class="cls-9" d="M212.07,179.53c-1-.23-2-.43-3-.71a30.71,30.71,0,0,1-2.93-1,26.81,26.81,0,0,1-5.47-2.91,24.61,24.61,0,0,1-4.57-4.13,21.7,21.7,0,0,1-1.82-2.46,17,17,0,0,1-1.47-2.82,1.54,1.54,0,0,1,.86-2,1.56,1.56,0,0,1,1.91.63l.08.15a17.61,17.61,0,0,0,1.45,2A18,18,0,0,0,198.9,168a19.76,19.76,0,0,0,4.2,2.81,22.21,22.21,0,0,0,4.73,1.68c.8.24,1.66.29,2.47.46s1.69.13,2.52.21l.28,0a3.21,3.21,0,1,1-.6,6.39A3,3,0,0,1,212.07,179.53Z"/><path class="cls-9" d="M234.65,147.57l-7.08-.66a.94.94,0,0,1-.84-1,.93.93,0,0,1,.84-.84l7.08-.66a1.6,1.6,0,0,1,.3,3.18A1.5,1.5,0,0,1,234.65,147.57Z"/></g><path class="cls-9" d="M178.19,133.26l.71,0a5.88,5.88,0,0,1,.6,0,6.29,6.29,0,0,1,1.16.25,7,7,0,0,1,2.12,1.05,8.66,8.66,0,0,1,2.82,3.52,10.9,10.9,0,0,1,.72,2,17.53,17.53,0,0,1,.33,2,18.49,18.49,0,0,1,0,2,17.45,17.45,0,0,1-.31,1.92,1.63,1.63,0,0,1-3.12.17l-.06-.17a12.88,12.88,0,0,1-.44-1.64c-.14-.53-.29-1-.4-1.55l-.43-1.46c-.18-.44-.3-.93-.51-1.32a7.12,7.12,0,0,0-1.33-2.16,5.72,5.72,0,0,0-.9-.8,4.59,4.59,0,0,0-.52-.33l-.26-.15c-.07,0-.21-.09-.18-.13a1.59,1.59,0,1,1,0-3.18Z"/><path class="cls-6" d="M170.68,190.71s-7.1,1.27-7.63,1.5C138,203,109,215.5,106.88,242.24,103.46,286.35,108.82,407,108.82,407h61.73Z"/><path class="cls-6" d="M206.49,190.71s7.1,1.27,7.64,1.5c25.05,10.75,47.73,23.29,49.8,50,3.42,44.11,15.5,164.78,15.5,164.78h-72.8Z"/><path class="cls-10" d="M111.07,391.53c25.79-81.6,32-133.26,32-133.26"/><rect class="cls-10" x="215.85" y="263.25" width="33.49" height="33.49" rx="4.76"/><path class="cls-10" d="M216.43,277.73c5,5.31,22.1,6.76,32.33,0"/><path class="cls-4" d="M170.68,180.38c0-1.47-10.7,6.92-12.37,9.51-5.19,8.06-9.37,17.73-7.32,27.45,4.15,19.66,19.69,23.84,19.69,23.84Z"/><path class="cls-4" d="M206.55,180.38c0-1.47,10.12,5.83,12.36,9.51,5,8.19,9.38,17.73,7.33,27.45-4.15,19.66-19.69,23.84-19.69,23.84Z"/><path class="cls-10" d="M279.43,407c3-40.26-13.82-131.66-30.09-165.84"/><line class="cls-10" x1="214.26" y1="407.02" x2="214.26" y2="388.61"/><line class="cls-10" x1="224.19" y1="407.02" x2="224.19" y2="388.61"/><line class="cls-10" x1="234.13" y1="407.02" x2="234.13" y2="388.61"/><line class="cls-10" x1="244.06" y1="407.02" x2="244.06" y2="388.61"/><line class="cls-10" x1="254" y1="407.02" x2="254" y2="388.61"/><line class="cls-10" x1="263.93" y1="407.02" x2="263.93" y2="388.61"/><line class="cls-10" x1="273.87" y1="407.02" x2="273.87" y2="388.61"/><line class="cls-10" x1="120.82" y1="407.02" x2="120.82" y2="388.61"/><line class="cls-10" x1="130.76" y1="407.02" x2="130.76" y2="388.61"/><line class="cls-10" x1="140.69" y1="407.02" x2="140.69" y2="388.61"/><line class="cls-10" x1="150.63" y1="388.61" x2="150.63" y2="407.02"/><line class="cls-10" x1="160.56" y1="407.02" x2="160.56" y2="388.61"/><line class="cls-5" x1="266.68" y1="575.18" x2="250.5" y2="583.97"/><line class="cls-5" x1="253.2" y1="586.02" x2="266.68" y2="587.55"/><path class="cls-4" d="M248.76,581.79l-41-89.41a.82.82,0,0,0-1.56.26l-10,98.43-18-54.05,3.28-80.26,62.59-4.46v69.62Z"/></svg>
