<svg xmlns="http://www.w3.org/2000/svg" viewBox="0 0 336.9 80.99">
  <defs>
    <style>
      .logo{fill:#006aff}
    </style>
  </defs>
  <g data-name="Layer 2">
    <g data-name="Layer 1">
      <path class="logo" d="M120.8 79.84 96.35 13h13.08l18.91 54.34 19-54.34h12.89l-24.44 66.84ZM183.25 81a25.83 25.83 0 0 1-12.7-3.06 22.15 22.15 0 0 1-8.69-8.59 25.46 25.46 0 0 1-3.15-12.8 27 27 0 0 1 3.1-13.08 22.54 22.54 0 0 1 8.6-8.93 25.27 25.27 0 0 1 12.94-3.2 24.4 24.4 0 0 1 12.32 3.06 21.89 21.89 0 0 1 8.33 8.34 23.43 23.43 0 0 1 3 11.79c0 .71 0 1.44-.05 2.2s-.08 1.56-.14 2.39h-36a12.33 12.33 0 0 0 3.86 8.69 12.17 12.17 0 0 0 8.49 3.19 11.14 11.14 0 0 0 6.25-1.67 10.29 10.29 0 0 0 3.77-4.35h12.42a22.72 22.72 0 0 1-4.44 8.17 21.81 21.81 0 0 1-7.64 5.77A24.2 24.2 0 0 1 183.25 81Zm.1-39.73a13 13 0 0 0-7.93 2.53 11.71 11.71 0 0 0-4.42 7.68h23.58a10.31 10.31 0 0 0-3.4-7.48 11.43 11.43 0 0 0-7.83-2.74ZM238.45 81a25.87 25.87 0 0 1-12.71-3.06 22.22 22.22 0 0 1-8.69-8.59 25.46 25.46 0 0 1-3.15-12.8 27 27 0 0 1 3.1-13.09 22.52 22.52 0 0 1 8.59-8.93 25.27 25.27 0 0 1 12.94-3.2 24.37 24.37 0 0 1 12.32 3.06 22 22 0 0 1 8.36 8.35 23.52 23.52 0 0 1 3 11.79v2.2c0 .76-.09 1.56-.15 2.39H226a12.3 12.3 0 0 0 3.87 8.69 12.15 12.15 0 0 0 8.48 3.19 11.11 11.11 0 0 0 6.25-1.67 10.31 10.31 0 0 0 3.78-4.35h12.41a22.42 22.42 0 0 1-4.44 8.17 21.81 21.81 0 0 1-7.64 5.77A24.12 24.12 0 0 1 238.45 81Zm.09-39.73a13 13 0 0 0-7.92 2.53 11.72 11.72 0 0 0-4.4 7.69h23.59a10.32 10.32 0 0 0-3.44-7.49 11.41 11.41 0 0 0-7.83-2.74ZM270.63 79.84V11.08h12.22v68.76ZM309.78 81a22.47 22.47 0 0 1-10-2 13.52 13.52 0 0 1-5.82-5.21 13.78 13.78 0 0 1-1.96-7.13A13 13 0 0 1 297.17 56q5.16-4.11 15.47-4.11h12v-1.18q0-4.86-2.77-7.16a10.38 10.38 0 0 0-6.87-2.29 11.77 11.77 0 0 0-6.46 1.74 7.58 7.58 0 0 0-3.44 5.2h-11.94a16.59 16.59 0 0 1 3.49-9 19.48 19.48 0 0 1 7.78-5.88 26.78 26.78 0 0 1 10.69-2.05q10.13 0 15.95 5.06t5.83 14.32v29.19h-10.41l-1.15-7.64a17.6 17.6 0 0 1-5.87 6.3 17.3 17.3 0 0 1-9.69 2.5Zm2.77-9.55a10.11 10.11 0 0 0 8.16-3.45 16.69 16.69 0 0 0 3.68-8.5H314q-4.87 0-7 1.77a5.46 5.46 0 0 0-2.1 4.34 5 5 0 0 0 2.1 4.3 9.18 9.18 0 0 0 5.55 1.53ZM74 26.76l-8.8-7-7.87-6.29-4.29 9.43-14.58 32-8.73-19.26a3.7 3.7 0 0 0-3.37-2.15H18l14 30.74a3.88 3.88 0 0 0 3.54 2.26h5.88A3.87 3.87 0 0 0 45 64.23l16-35.07 5.41 4.33V71H10.13V33.49L38.25 11l12.14 9.72 4.29-9.44-12.26-9.82a6.69 6.69 0 0 0-8.35 0L2.45 26.76A6.51 6.51 0 0 0 0 31.84v42.61A6.59 6.59 0 0 0 6.62 81h63.25a6.58 6.58 0 0 0 6.62-6.54V31.84A6.51 6.51 0 0 0 74 26.76Z"/>
    </g>
  </g>
</svg>
