<svg
  viewBox="0 0 32 32"
  aria-hidden="true"
  focusable="false"
  role="img"
  fill="#006aff"
  xmlns="http://www.w3.org/2000/svg"
>
  <g stroke="none">
    <path d="M28.34 7.06l-14-5a1 1 0 00-.92.12A1 1 0 0013 3v13.35l-2.33-2.09a1 1 0 00-1.34 0l-5.82 5.22A1.55 1.55 0 003 20.62v8.11A1.27 1.27 0 004.27 30H28a1 1 0 001-1V8a1 1 0 00-.66-.94zM11 28H9v-3h2zm4 0h-2v-3.5a1.5 1.5 0 00-1.5-1.5h-3A1.5 1.5 0 007 24.5V28H5v-7.17l5-4.49 5 4.49zm12 0H17v-7.38a1.55 1.55 0 00-.51-1.14L15 18.12V4.42l12 4.29z" />
    <path d="M24 13v10a1 1 0 01-2 0V13a1 1 0 012 0zM20 11v12a1 1 0 01-2 0V11a1 1 0 012 0z" />
  </g>
</svg>
