<svg viewBox="0 0 32 32" aria-hidden="true" focusable="false" role="img" xmlns="http://www.w3.org/2000/svg" fill="#006aff">
  <path
    stroke="none"
    d="M28.49 17.71a1 1 0 00-1.23-.71l-5.06 1.34L18 16l4.2-2.34L27.26 15h.26a1 1 0 001-.71 1 1 0 00-.71-1.18l-3.13-.81 3.1-1.73a.94.94 0 00.37-1.31 1 1 0 00-1.37-.35l-3.1 1.72.84-3a1 1 0 00-.71-1.18 1 1 0 00-1.22.68L21.2 12 17 14.33V9.66l3.7-3.57a.94.94 0 000-1.36 1 1 0 00-1.41 0L17 6.93V3a1 1 0 00-2 0v4l-2.29-2.2a1 1 0 00-1.41 0 .94.94 0 000 1.36l3.7 3.5v4.67L10.8 12 9.44 7.12a1 1 0 00-1.22-.68 1 1 0 00-.71 1.18l.84 3-3.1-1.71a1 1 0 00-1.37.35.94.94 0 00.37 1.31l3.1 1.73-3.13.81a1 1 0 00-.71 1.18 1 1 0 001 .71h.26l5.03-1.34L14 16l-4.2 2.34L4.74 17a1 1 0 00-1.23.68 1 1 0 00.71 1.18l3.13.81-3.1 1.73a.94.94 0 00-.37 1.31 1 1 0 001.37.35l3.1-1.72-.84 3a1 1 0 00.71 1.18.78.78 0 00.26 0 1 1 0 001-.72L10.8 20l4.2-2.33v4.67l-3.7 3.57a.94.94 0 000 1.36 1 1 0 001.41 0l2.29-2.2v4a1 1 0 002 0v-4l2.29 2.2a1 1 0 00.71.29 1 1 0 00.7-.29.94.94 0 000-1.36L17 22.34v-4.67L21.2 20l1.36 4.87a1 1 0 001 .72.78.78 0 00.26 0 1 1 0 00.71-1.18l-.84-3 3.1 1.72a1 1 0 001.37-.35.94.94 0 00-.37-1.31l-3.1-1.73 3.13-.81a1 1 0 00.67-1.22z"
  />
</svg>
